<svg xmlns="http://www.w3.org/2000/svg" width="120" height="26"><path d="M9.559 0l-9.56 25.303h4.572l2.05-5.89h9.802l2.068 5.89h4.589L13.504 0H9.559zm1.964 5.37l3.666 10.496H7.855L11.523 5.37zM28.78 6.5h-4.657l5.735 9.262-5.944 9.541h4.692l3.737-6.43 3.754 6.43h4.657l-5.943-9.54L40.563 6.5H35.87l-3.581 6.187zm18.613 4.683c.811-1.095 1.905-1.642 3.285-1.642 1.401 0 2.511.556 3.328 1.668.817 1.113 1.225 2.62 1.225 4.52 0 2.142-.397 3.77-1.19 4.883-.794 1.112-1.903 1.668-3.329 1.668-1.425 0-2.537-.548-3.337-1.642-.799-1.096-1.199-2.61-1.199-4.545 0-2.179.406-3.815 1.217-4.91zm-5.439 4.753c0 2.943.796 5.3 2.39 7.065 1.592 1.767 3.715 2.65 6.368 2.65 1.738 0 3.27-.399 4.597-1.199 1.327-.799 2.346-1.929 3.06-3.389.712-1.46 1.068-3.116 1.068-4.97l-.018-.99c-.127-2.7-.982-4.867-2.563-6.5-1.582-1.634-3.64-2.45-6.178-2.45-1.716 0-3.233.396-4.554 1.19-1.32.793-2.346 1.928-3.076 3.406-.73 1.477-1.094 3.137-1.094 4.98v.207zM62.947 6.5v18.803h4.224V11.921c.835-1.54 2.102-2.31 3.806-2.31 1.17 0 2.013.285 2.529.86.515.572.773 1.457.773 2.65v12.182h4.223V12.877c-.07-4.482-2.062-6.726-5.98-6.726-2.258 0-4.082.841-5.473 2.52L66.927 6.5h-3.98zm47.563 8.225l-2.099 2.098 8.824 8.823 2.097-2.097-8.823-8.824zm-24.815 10.65h3.707V.166h-3.707v25.21zm20.761-3.707a8.897 8.897 0 0 1-8.897-8.898 8.899 8.899 0 0 1 17.796 0c0 .97-.16 1.9-.447 2.774l2.83 2.828a12.538 12.538 0 0 0 1.325-5.602c0-6.962-5.645-12.605-12.607-12.605S93.851 5.808 93.851 12.77c0 6.962 5.643 12.606 12.605 12.606 2.016 0 3.913-.485 5.603-1.326l-2.828-2.828a8.902 8.902 0 0 1-2.775.446z" fill="#FEFEFE" fill-rule="evenodd"/></svg>